<svg version="1.1" viewBox="-20 0 1024 512" xmlns="http://www.w3.org/2000/svg">
    <g stroke="#000">
        <path
            d="m329.86 134.1c-29.991-.22-72.465 16.989-89.292 23.661-4.788 1.899-17.392 18.814-25.217 35.257-3.499 7.354-29.281 82.156-29.281 82.156s-12.143 57.84-10 92.125c2.143 34.286 22.844 65.719 22.844 65.719s17.557 17.1 27 20.688c11.302 4.293 31.854 6.909 43 5.031 25.866-4.359 98.438-41.295 103.44-43.438s9.917-4.1 14.687-5.312c3.519 3.343 30.116 5.629 43.688 1.344 13.571-4.286 20.917-7.947 27.218-13.25 11.761-.638 32.973-.601 52.407-.5 19.393-.101 40.544-.137 52.281.5 6.288 5.302 13.612 8.965 27.156 13.25 13.544 4.284 40.113 1.998 43.625-1.344 4.761 1.212 9.635 3.17 14.625 5.312 4.99 2.143 77.436 39.08 103.25 43.438 11.123 1.878 31.627-.77 42.906-5.063 9.424-3.586 26.938-20.656 26.938-20.656s20.674-31.41 22.812-65.687c2.139-34.278-9.968-92.125-9.968-92.125s-25.727-74.773-29.219-82.125c-7.809-16.44-21.039-34.913-25.817-36.811-12.279-4.878-36.23-16.619-63.119-20.787-16.694-2.587-36.596-2.9-50.752 1.724-9.547 3.119-17.962 11.176-24.281 14.777-7.38 4.205-37.514 22.432-54.622 26.717-24.915 4.167-50.531 3.976-75.563 3.318 0 0-58.828.684-75.971-3.602s-40.016-19.758-47.411-23.964c-6.332-3.602-10.845-7.526-24.955-14.165-10.907-6.361-22.634-6.188-32.407-6.188z"
            fill="#c7c7c7" />
        <path
            d="m483.73 349.45c0 33.613-33.298 60.861-74.372 60.861-41.075 0-74.373-27.248-74.373-60.861s33.298-60.862 74.373-60.862c41.074 0 74.372 27.249 74.372 60.862z"
            fill="#e1e1e1" stroke-width=".999" />
        <path
            d="m477.9 355.05c0 31.097-31.192 56.305-69.669 56.305-38.478 0-69.67-25.208-69.67-56.305 0-31.096 31.192-56.304 69.67-56.304 38.477 0 69.669 25.208 69.669 56.304z"
            fill="#c9c9c9" stroke-width="1.1522" />
        <path
            d="m330.23 79.242c-12.736.2786-24.741 2.6763-28.844 3.7812-6.566 1.7678-10.344 5.5625-10.344 5.5625l-32.062 30.032s-5.044 5.188-5.55 5.819c-6.491 8.114-7.953 8.203-8.964 10.223-1.01 2.021-4.314 5.43-5.955 7.829-1.038 1.517-3.766 6.46-5.281 7.723-1.516 1.262-21.469 52.093-21.469 52.093s23.015-24.473 38.04-30.87c32.52-13.847 70.519-19.707 105.23-13.043 27.173 5.216 46.125 32.426 72.741 39.989 26.055 7.402 54.067 4.301 81.153 4.143 29.584-.172 60.098 2.444 88.579-5.559 26.585-7.469 46.159-33.463 73.285-38.631 35.899-6.84 76.518-4.886 108.99 11.882 12.734 6.576 28.544 32.152 28.544 32.152s-19.894-50.863-21.406-52.125c-1.133-1.894-4.019-5.672-4.524-7.439-.504-1.767-6.968-7.198-7.976-9.218-1.008-2.019-1.023-.238-7.67-8.203-2.001-2.398-5.549-6.703-5.549-6.703l-32-30.031s-3.791-3.7952-10.344-5.5625c-6.552-1.7674-33.231-6.6993-50.906-1.25-13.664 4.2129-15.625 6.8125-15.625 6.8125s-7.549 9.3576-13.094 11.125c-5.544 1.767-30.483 18.42-48.125 20.187-17.642 1.768-34.795 4.547-40.843 3.032-6.049-1.515-39.907-1.094-39.907-1.094v-.063s-33.939-.421-40 1.094c-6.06 1.515-23.228-1.263-40.906-3.031-17.677-1.768-42.694-18.451-48.25-20.219-5.556-1.7677-13.125-11.094-13.125-11.094s-1.885-3.0955-15.656-6.8125c-6.709-1.8108-14.546-2.6985-22.188-2.5313z"
            fill="#dadada" />
        <path d="m306.55 73.168 45.482 12.134-12.358 46.462-42.446-10.705z" stroke-width=".97984" />
        <path
            d="m297.67 118.38s6.429-39.464 6.607-42.143c.179-2.6785 2.143-19.107 2.679-21.428.535-2.3215 6.785-7.6786 9.107-7.6786h19.464s11.964 1.9643 12.322 10.357c.357 8.3929.535 17.322.535 17.322l-3.214 41.071z"
            fill="#f8f8f8" />
        <path
            d="m692.82 133.62c-10.005-.05-19.787.992-27.75 3.594-9.547 3.118-17.962 11.18-24.281 14.781-7.38 4.205-37.517 22.434-54.625 26.719-24.915 4.167-50.53 3.97-75.562 3.312 0 0-58.826.692-75.969-3.594-17.143-4.285-40.011-19.762-47.406-23.968-6.332-3.602-10.766-7.42-24.876-14.06-10.907-6.36-22.727-6.284-32.499-6.284-29.992-.22-72.455 15.847-89.282 22.52-4.703 1.865-16.932 19.347-24.781 35.511-2.301 5.803-4.031 10.156-4.031 10.156s23.006-24.478 38.031-30.875c32.52-13.846 70.538-19.695 105.25-13.031 27.173 5.217 46.103 32.407 72.719 39.969 26.055 7.403 54.07 4.314 81.156 4.156 29.584-.172 60.112 2.44 88.594-5.562 26.585-7.47 46.154-33.457 73.281-38.625 35.899-6.84 76.529-4.893 109 11.875 12.734 6.575 28.531 32.156 28.531 32.156s-1.712-4.333-4-10.125c-7.854-16.22-20.679-34.104-25.375-35.969-12.279-4.878-36.236-16.614-63.125-20.781-7.304-1.132-15.218-1.837-23-1.875z"
            fill="#f3f3f3" fill-opacity=".45213" />
        <path
            d="m239.81 150.35 1.071-10.535s-.714-9.643 13.572-15.715c14.285-6.071 26.428-13.75 43.035-17.142 16.608-3.393 26.608-4.286 34.643-4.108 8.036.179 20.715 1.072 22.143 1.608 1.429.535 3.572 6.964 5.357 7.321 1.786.357 6.25 1.607 6.25 1.607l.536 12.679-4.107 14.107s-12.857-8.929-46.607-4.286-44.286 9.822-44.286 9.822-30.179 11.785-31.25 10.892c-1.071-.892-.357-6.25-.357-6.25z"
            fill="#f1f1f1" />
        <path d="m671.68 84.266 43.58-11.734 12.503 46.436-43.58 11.735z" stroke-width=".999" />
        <path
            d="m726.13 117.95s-6.416-39.456-6.594-42.133c-.178-2.678-2.139-19.103-2.673-21.424-.535-2.3209-6.772-7.6767-9.089-7.6767h-19.425s-11.94 1.9638-12.297 10.355c-.356 8.3909-.534 17.317-.534 17.317l3.207 41.062z"
            fill="#f8f8f8" stroke-width=".99887" />
        <g stroke-width=".999">
            <path
                d="m780.34 150.41-1.069-10.533s.713-9.64-13.544-15.71-26.375-13.747-42.949-17.139c-16.573-3.392-26.553-4.285-34.573-4.106-8.019.178-20.672 1.071-22.098 1.606-1.426.536-3.564 6.963-5.346 7.32s-6.238 1.607-6.238 1.607l-.534 12.675 4.099 14.104s12.831-8.926 46.513-4.284c33.682 4.641 44.196 9.819 44.196 9.819s30.118 11.783 31.187 10.89.356-6.249.356-6.249z"
                fill="#f1f1f1" />
            <path
                d="m685.05 252.87c0 11.551-10.721 20.915-23.947 20.915s-23.947-9.364-23.947-20.915c0-11.552 10.721-20.916 23.947-20.916s23.947 9.364 23.947 20.916z"
                fill="#0032b0" />
            <path
                d="m683.46 256.24c0 9.665-9.771 17.5-21.825 17.5s-21.826-7.835-21.826-17.5 9.772-17.5 21.826-17.5 21.825 7.835 21.825 17.5z"
                fill="#0e52ff" />
        </g>
        <path
            d="m737.41 291.3c1.674 10.856-8.133 21.378-21.905 23.502-13.771 2.124-26.293-4.955-27.967-15.811s8.133-21.378 21.905-23.502c13.771-2.124 26.293 4.955 27.967 15.811z"
            fill="#249500" stroke-width="1.3401" />
        <path
            d="m736.12 295.52c1.705 9.963-6.764 19.726-18.917 21.805-12.152 2.08-23.386-4.311-25.091-14.274s6.764-19.725 18.917-21.805c12.152-2.08 23.386 4.311 25.091 14.274z"
            fill="#35d900" stroke-width="1.2092" />
        <path
            d="m743.79 199.45c2.993 11.927-5.911 24.439-19.889 27.948-13.978 3.508-27.736-3.317-30.73-15.244-2.993-11.927 5.912-24.44 19.89-27.948s27.736 3.317 30.729 15.244z"
            fill="#d9c300" stroke-width="1.1814" />
        <path
            d="m741.73 205.12c2.658 10.994-5.17 22.319-17.484 25.296s-24.45-3.522-27.108-14.515c-2.658-10.994 5.17-22.319 17.484-25.296s24.45 3.522 27.108 14.515z"
            fill="#ffe823" stroke-width="1.0623" />
        <path
            d="m794.29 238.91c4.119 10.632-3.042 23.648-15.997 29.071-12.954 5.424-26.795 1.201-30.915-9.432-4.12-10.632 3.042-23.648 15.997-29.072 12.954-5.423 26.795-1.2 30.915 9.433z"
            fill="#ab0b00" stroke-width="1.2425" />
        <path
            d="m792.76 243.12c3.588 9.335-2.649 20.762-13.931 25.524-11.282 4.761-23.337 1.054-26.925-8.281-3.587-9.335 2.65-20.763 13.932-25.525 11.282-4.761 23.336-1.054 26.924 8.282z"
            fill="#ff1303" stroke-width="1.0865" />
        <path
            d="m468.07 356.02c0 26.778-26.965 48.487-60.228 48.487s-60.227-21.709-60.227-48.487c0-26.779 26.964-48.488 60.227-48.488s60.228 21.709 60.228 48.488z"
            fill="#181818" stroke-width="1.0107" />
        <path
            d="m463.47 357.71c0 25.539-25.074 46.242-56.004 46.242s-56.003-20.703-56.003-46.242 25.073-46.242 56.003-46.242 56.004 20.703 56.004 46.242z"
            fill="#999" stroke-width="1.2563" />
        <path
            d="m460.81 361.53c0 23.041-23.957 41.72-53.509 41.72s-53.509-18.679-53.509-41.72 23.957-41.72 53.509-41.72 53.509 18.679 53.509 41.72z"
            fill="#848484" stroke-width="1.1664" />
        <path
            d="m552.19 252.86c0 18.481-18.425 33.463-41.153 33.463-22.729 0-41.154-14.982-41.154-33.463s18.425-33.463 41.154-33.463c22.728 0 41.153 14.982 41.153 33.463z"
            fill="#353535" stroke-width="1.385" />
        <path
            d="m544.95 252.68c0 15.094-15.139 27.33-33.813 27.33-18.675 0-33.813-12.236-33.813-27.33s15.138-27.331 33.813-27.331c18.674 0 33.813 12.237 33.813 27.331z"
            fill="#cacaca" stroke-width=".999" />
        <path
            d="m407.32 319.52 10.67.505s3.219 1.263 3.788 4.419c.417 2.322 2.904 14.142 3.661 14.774.758.631 4.167 6.566 7.198 6.945 3.03.378 23.36 3.283 24.622 4.419 1.263 1.136 3.157 6.061 3.157 6.061l.252 12.248s-.757 3.788-1.894 4.419c-1.136.632-22.097 2.652-22.097 2.652s-6.313 1.515-7.45 5.177c-1.136 3.662-3.409 18.814-4.419 19.824s-2.399 3.157-5.303 3.536-17.173.631-17.173.631-5.303-1.136-6.566-2.904-4.419-17.425-4.419-17.425-2.021-5.556-8.334-7.197c-6.313-1.642-18.183-.253-21.718-1.895-3.536-1.641-5.935-4.671-6.187-7.323-.253-2.652-1.389-11.869-.884-12.627s2.904-5.303 4.293-5.43c1.389-.126 20.455-2.272 22.602-3.914 2.147-1.641 6.945-5.43 7.197-7.955.253-2.525 1.359-16.723 2.336-16.731.803-.728 1.477-.94 2.1-1.269 1.048-.555 3.792-.701 7.307-.751 4.42-.063 7.261-.189 7.261-.189z"
            fill="#999" />
        <path
            d="m436.67 242.52s-4.706-.145-5.843-.018c-1.136.126-11.301 1.262-11.68 12.058-.378 10.796 12.015 12.951 12.015 12.951l5.474.11 5.763.019s12.609-1.715 12.798-12.638c.19-10.922-13.005-12.437-13.005-12.437z"
            fill="#f1f1f1" />
        <path
            d="m585.42 243.05s-4.706-.145-5.843-.019c-1.136.127-11.301 1.263-11.68 12.059-.378 10.796 12.015 12.95 12.015 12.95l5.474.111 5.763.019s12.609-1.716 12.798-12.638c.19-10.922-13.005-12.438-13.005-12.438z"
            fill="#f1f1f1" />
        <path d="m441.77 251.87-.268 13.75-13.75-7.321z" fill="#d9d9d9" />
        <path d="m581.1 252.18-.67 13.125 14.42-6.25z" fill="#d9d9d9" />
        <path
            d="m510.63 254.24 14.648 9.217s7.576 4.672 8.081 5.43c.505.757 2.02 2.652 2.02 2.652s2.084-1.768 2.462-2.273c.379-.505-.315-2.841-.315-2.841s-1.642-3.978-8.208-9.029c-6.566-5.05-11.869-11.111-11.869-11.111l6.44-7.45s4.735-5.367 5.682-5.809c.472-.22 2.462-1.452 2.462-1.452s-2.083-1.957-4.356-2.588c-2.273-.632-17.552 9.217-17.552 9.217s-15.72-7.26-17.993-8.018c-1.894.821-3.365 1.865-4.546 2.841 2.671.787 3.536 1.894 3.536 1.894s10.092 9.524 10.796 10.291c.694.758 1.199 1.263 1.199 1.263l-11.001 11.996s-5.857 7.428-5.808 9.359c.038 1.485-.763 2.469-.269 3.062 0 0 3.568 3.567 3.063 2.305-.506-1.263 1.262-2.825 1.262-2.825s5.338-4.725 6.913-5.746c1.705-1.105 13.353-10.385 13.353-10.385z"
            fill="#77ec00" />
        <path
            d="m679.2 343.86c0 28.714-32.959 51.991-73.615 51.991-40.657 0-73.615-23.277-73.615-51.991 0-28.713 32.958-51.99 73.615-51.99 40.656 0 73.615 23.277 73.615 51.99z"
            fill="#dadada" stroke-width="1.0358" />
        <path
            d="m653.69 358.71c0 21.777-21.168 39.431-47.281 39.431-26.112 0-47.281-17.654-47.281-39.431s21.169-39.431 47.281-39.431c26.113 0 47.281 17.654 47.281 39.431z"
            fill="#181818" stroke-width="1.0873" />
        <path
            d="m649.11 358.41c0 19.927-19.324 36.081-43.161 36.081s-43.16-16.154-43.16-36.081 19.323-36.081 43.16-36.081 43.161 16.154 43.161 36.081z"
            fill="#757575" stroke-width="1.0938" />
        <path
            d="m376.91 263.39c-5.565 30.983-42.282 49.844-82.01 42.129-39.728-7.716-67.423-39.087-61.858-70.07s42.282-49.845 82.01-42.129 67.423 39.087 61.858 70.07z"
            fill="#dedede" stroke-width="1.338" />
        <path
            d="m353.88 261.57c0 21.878-21.296 39.614-47.565 39.614-26.27 0-47.566-17.736-47.566-39.614 0-21.879 21.296-39.615 47.566-39.615 26.269 0 47.565 17.736 47.565 39.615z"
            fill="#181818" stroke-width="1.1781" />
        <path
            d="m349.82 261.26c0 19.927-19.324 36.081-43.161 36.081s-43.16-16.154-43.16-36.081 19.323-36.081 43.16-36.081 43.161 16.154 43.161 36.081z"
            fill="#757575" stroke-width="1.0938" />
        <path
            d="m348.38 274.13c0 21.616-20.393 39.139-45.549 39.139-25.157 0-45.55-17.523-45.55-39.139s20.393-39.139 45.55-39.139c25.156 0 45.549 17.523 45.549 39.139z"
            fill="#868686" stroke-width="1.3221" />
        <path
            d="m650.68 375.91c0 20.395-19.733 36.928-44.075 36.928s-44.075-16.533-44.075-36.928c0-20.394 19.733-36.927 44.075-36.927s44.075 16.533 44.075 36.927z"
            fill="#868686" stroke-width="1.0992" />
    </g>
    <g fill="#686868">
        <path
            d="m477.51 225.74h-1.659v-4.137c-.607.375-1.321.653-2.144.832v-.996c.433-.093.903-.271 1.411-.533s.857-.567 1.046-.916h1.346z" />
        <path
            d="m549.26 224.26v.98h-4.668c.05-.371.202-.722.455-1.053.252-.332.752-.772 1.497-1.32.601-.443.969-.743 1.105-.901.183-.218.275-.433.275-.646 0-.235-.08-.416-.24-.542-.159-.127-.38-.19-.661-.19-.278 0-.499.066-.663.199-.165.133-.26.353-.285.661l-1.327-.105c.079-.581.327-.998.744-1.251.417-.252.939-.379 1.564-.379.686 0 1.225.147 1.616.439.392.293.588.657.588 1.093 0 .248-.056.484-.168.708s-.29.458-.533.704c-.161.162-.452.396-.872.702-.421.305-.687.508-.799.608s-.203.198-.273.293z" />
        <path
            d="m474.32 287.36 1.312-.122c.041.256.154.452.337.588.183.135.405.203.666.203.28 0 .515-.082.706-.244.192-.163.287-.382.287-.658 0-.261-.091-.468-.275-.621-.183-.152-.406-.229-.67-.229-.174 0-.381.026-.622.078l.149-.846c.367.007.647-.054.84-.183.192-.13.289-.302.289-.516 0-.182-.071-.328-.212-.436-.142-.108-.33-.163-.565-.163-.231 0-.429.062-.593.185s-.263.303-.299.54l-1.249-.163c.087-.327.218-.589.393-.785s.42-.35.733-.462c.314-.112.665-.168 1.054-.168.666 0 1.199.162 1.601.488.331.266.497.566.497.901 0 .476-.339.855-1.018 1.138.405.067.729.216.972.448.243.231.364.511.364.838 0 .476-.226.881-.68 1.216-.453.335-1.017.503-1.693.503-.639 0-1.17-.141-1.591-.423s-.666-.651-.733-1.107z" />
        <path
            d="m546.36 288.85v-1.051h-2.844v-.876l3.015-3.318h1.118v3.314h.863v.88h-.863v1.051zm0-1.931v-1.785l-1.597 1.785z" />
        <path
            d="m410.52 241.07 1.628-1.61c.322-.318.576-.542.76-.672.185-.129.382-.213.592-.252.209-.038.425-.028.649.032.223.059.422.176.596.352.188.191.31.417.364.678.055.261.034.518-.064.772.32-.173.633-.239.938-.197.305.043.574.181.807.417.183.185.318.408.405.668s.107.516.062.768c-.046.252-.166.498-.361.738-.122.15-.444.486-.964 1.008l-1.387 1.37zm1.492-.135.931.941.539-.532c.32-.317.515-.518.583-.604.125-.156.187-.314.188-.474.001-.161-.063-.307-.193-.438-.125-.126-.261-.194-.408-.204s-.298.044-.451.163c-.091.071-.33.298-.717.681zm1.601 1.619 1.076 1.089.762-.752c.296-.293.476-.487.539-.582.1-.143.146-.296.138-.458s-.084-.315-.227-.46c-.121-.122-.253-.197-.396-.223-.144-.027-.291-.004-.441.068-.151.072-.413.292-.787.662z" />
        <path
            d="m423.19 238.52-1.08.645-1.096-.86-1.965 1.174.261 1.359-1.053.629-1.022-6.06 1.049-.627zm-2.99-.853-1.767-1.419.426 2.22z" />
        <path
            d="m426.66 235.21h1.176c.025.648-.108 1.177-.397 1.587-.29.41-.727.708-1.313.893-.725.23-1.399.171-2.023-.177-.624-.347-1.071-.95-1.343-1.809-.288-.909-.277-1.689.033-2.34s.847-1.098 1.612-1.34c.667-.212 1.272-.186 1.815.076.322.155.614.431.877.829l-1.009.606c-.154-.263-.36-.443-.616-.542-.257-.099-.532-.102-.825-.009-.404.128-.687.377-.847.747-.16.371-.137.881.069 1.531.219.691.499 1.143.84 1.357s.71.259 1.107.133c.293-.093.516-.266.668-.519s.21-.594.176-1.023z" />
        <path
            d="m429.38 236.72-.616-5.694 1.15-.124.273 2.528 2.049-2.779 1.546-.167-1.904 2.449 2.636 3.232-1.488.16-1.854-2.502-.829 1.052.186 1.72z" />
        <path
            d="m586.51 234.44 1.126-.101c.065.378.2.656.406.835.206.178.484.269.836.272.372.003.654-.074.844-.23.189-.157.285-.34.287-.551.001-.135-.038-.251-.117-.347-.078-.095-.216-.179-.414-.251-.135-.048-.443-.133-.924-.257-.618-.158-1.052-.35-1.3-.576-.349-.318-.522-.703-.519-1.156.002-.292.087-.564.254-.817.168-.252.407-.444.72-.574.312-.131.688-.194 1.128-.191.719.005 1.258.167 1.619.485s.549.74.563 1.266l-1.156.042c-.048-.295-.152-.507-.314-.637s-.405-.197-.731-.199c-.336-.003-.599.064-.791.201-.123.088-.185.206-.186.354-.001.135.056.252.169.349.145.123.499.254 1.06.391.562.137.977.277 1.245.421s.478.34.628.587c.151.247.225.552.222.914-.002.328-.096.634-.28.92-.185.285-.444.496-.778.632-.335.137-.751.204-1.248.2-.724-.005-1.279-.177-1.664-.514-.386-.338-.614-.827-.685-1.468z" />
        <path d="m593.4 236.73.873-4.677-1.67-.312.177-.952 4.474.835-.178.952-1.666-.311-.873 4.677z" />
        <path
            d="m601.78 239.26-1.178-.44-.013-1.394-2.144-.801-.898 1.052-1.149-.429 4.095-4.583 1.145.429zm-1.2-2.867.005-2.267-1.469 1.719z" />
        <path
            d="m602.33 239.59 2.983-4.888 2.077 1.267c.523.319.875.595 1.059.827.183.232.277.504.282.815.005.312-.08.612-.256.901-.224.367-.517.604-.878.711-.362.108-.776.062-1.243-.138.138.255.23.499.278.733.049.233.074.612.078 1.136l.015 1.318-1.18-.72-.065-1.499c-.021-.535-.049-.881-.082-1.036-.033-.156-.09-.284-.172-.385-.082-.1-.237-.22-.464-.358l-.2-.122-1.245 2.041zm2.708-2.218.731.445c.473.289.781.449.923.481.143.032.277.019.403-.038.127-.057.235-.159.324-.305.1-.165.138-.324.111-.479-.026-.155-.111-.294-.254-.419-.074-.06-.31-.212-.71-.456l-.771-.47z" />
        <path d="m608.16 243.57 3.136-3.579-1.278-1.119.638-.729 3.423 2.999-.639.729-1.275-1.118-3.135 3.579z" />
    </g>
    <path
        d="m346.8 275.73c0 20.137-19.639 36.461-43.865 36.461-24.225 0-43.864-16.324-43.864-36.461s19.639-36.461 43.864-36.461c24.226 0 43.865 16.324 43.865 36.461z"
        fill="#999" stroke="#000" stroke-width="1.2523" />
    <path
        d="m649.47 377.1c0 19.26-19.147 34.874-42.766 34.874s-42.766-15.614-42.766-34.874 19.147-34.873 42.766-34.873 42.766 15.613 42.766 34.873z"
        fill="#999" stroke="#000" stroke-width="1.2093" />
    <g fill="#b0b0b0" stroke="#000" stroke-width=".999">
        <path
            d="m303.3 251.46c0 .906-.877 1.641-1.958 1.641-1.08 0-1.957-.735-1.957-1.641 0-.907.877-1.642 1.957-1.642 1.081 0 1.958.735 1.958 1.642z" />
        <path
            d="m336.63 278.36c0 .907-.877 1.641-1.958 1.641-1.08 0-1.957-.734-1.957-1.641s.877-1.641 1.957-1.641c1.081 0 1.958.734 1.958 1.641z" />
        <path
            d="m303.55 302.48c0 .907-.876 1.642-1.957 1.642s-1.957-.735-1.957-1.642c0-.906.876-1.641 1.957-1.641s1.957.735 1.957 1.641z" />
        <path
            d="m272.86 276.59c0 .907-.877 1.642-1.957 1.642-1.081 0-1.958-.735-1.958-1.642 0-.906.877-1.641 1.958-1.641 1.08 0 1.957.735 1.957 1.641z" />
    </g>
    <g stroke="#000" stroke-width=".999">
        <path
            d="m609.37 355.76c0 .907-.876 1.642-1.957 1.642s-1.957-.735-1.957-1.642.876-1.641 1.957-1.641 1.957.734 1.957 1.641z"
            fill="#afafaf" />
        <path
            d="m639.55 380.01c0 .907-.876 1.641-1.957 1.641s-1.957-.734-1.957-1.641.876-1.641 1.957-1.641 1.957.734 1.957 1.641z"
            fill="#979797" />
        <path
            d="m608.61 401.72c0 .907-.876 1.641-1.957 1.641s-1.957-.734-1.957-1.641.876-1.641 1.957-1.641 1.957.734 1.957 1.641z"
            fill="#b0b0b0" />
        <path
            d="m579.95 378.36c0 .907-.876 1.641-1.957 1.641s-1.957-.734-1.957-1.641.876-1.641 1.957-1.641 1.957.734 1.957 1.641z"
            fill="#b0b0b0" />
    </g>
    <path
        d="m718.81 305.39h-9.813l-1.549 4.29h-6.308l9.014-23.548h7.482l9.015 23.548h-6.309zm-8.248-4.369h6.667l-3.326-9.368z"
        fill="#249500" />
    <path
        d="m665.36 254.98 8.444 12.018h-6.537l-5.689-8.043-5.64 8.043h-6.569l8.444-12.018-8.118-11.53h6.553l5.33 7.587 5.314-7.587h6.586z"
        fill="#0032b0" />
    <path d="m706.52 197.61h6.863l5.542 8.391 5.543-8.391h6.879l-9.276 13.627v9.921h-6.276v-9.921z" fill="#d9c300" />
    <path
        d="m773.16 248.88c1.007.013 1.774-.191 2.3-.612s.794-1.05.805-1.885c.011-.825-.24-1.457-.755-1.898-.514-.441-1.275-.668-2.282-.681l-3.536-.047-.068 5.076zm.076 10.492c1.284.017 2.253-.232 2.908-.748.654-.516.988-1.304 1.003-2.365.013-1.038-.297-1.822-.932-2.35s-1.6-.8-2.895-.818l-3.752-.05-.084 6.281zm6.059-8.547c1.367.404 2.42 1.131 3.159 2.179.738 1.049 1.098 2.328 1.078 3.838-.031 2.314-.862 4.027-2.493 5.141-1.631 1.113-4.096 1.648-7.394 1.604l-10.609-.141.32-23.983 9.596.128c3.442.046 5.928.582 7.459 1.609 1.53 1.028 2.281 2.65 2.251 4.866-.015 1.168-.311 2.157-.886 2.969s-1.403 1.408-2.481 1.79z"
        fill="#ab0b00" />
    <path
        d="m240.88 139.81s-.714-9.643 13.572-15.715c14.285-6.071 26.428-13.75 43.035-17.142 16.608-3.393 26.608-4.286 34.643-4.108 8.036.179 20.715 1.072 22.143 1.608 1.429.535.519 3.287.054 5.048-.361 1.367-1.2 2.996-1.2 2.996l-.853 3.714-.193 3.248s-4.229-4.454-37.768 1.522c-31.317 5.581-32.038 6.034-32.038 6.034s-11.491 3.073-17.865 5.842c-1.28.556-17.455 5.268-17.455 5.268-2.254.558-4.348 1.59-6.075 1.685z"
        fill="#f8f8f8" stroke="#000" />
    <g fill="#bbb">
        <path d="m308.1 115.04-.444-6.608 2.322-.156.368 5.485 5.773-.388.075 1.123z" />
        <path
            d="m317.42 107.72 4.596-.308c.909-.062 1.589-.085 2.039-.071s.856.078 1.219.194c.362.116.668.281.919.497s.386.468.406.756c.021.312-.105.608-.378.888s-.653.502-1.141.666c.709.071 1.261.236 1.656.496.396.259.607.581.633.966.02.303-.082.606-.306.908-.224.303-.54.554-.95.754-.409.199-.921.339-1.535.42-.385.05-1.318.128-2.797.234l-3.913.263zm2.396.953.103 1.541 1.522-.102c.904-.061 1.466-.107 1.684-.136.396-.054.703-.155.922-.302.218-.147.32-.328.306-.543-.014-.206-.123-.367-.328-.483-.205-.115-.502-.174-.89-.175-.231 0-.893.037-1.986.111zm.178 2.65.12 1.781 2.148-.144c.837-.057 1.367-.106 1.59-.148.342-.06.617-.167.825-.323.207-.155.303-.351.287-.587-.013-.2-.108-.364-.285-.492-.176-.129-.425-.214-.746-.256-.32-.043-1.009-.028-2.065.043z" />
        <path d="m315.18 98.93v-6.6225h2.108v5.4975h5.24v1.125z" />
        <path d="m326.39 98.93v-5.5476h-3.097v-1.1295h8.295v1.1295h-3.09v5.5476z" />
        <path
            d="m692.74 99.192v-6.6771h4.436c1.115 0 1.926.06 2.431.1799.506.1199.91.3332 1.214.6399s.456.6574.456 1.0521c0 .5011-.231.9148-.691 1.2412s-1.149.5321-2.065.6171c.456.1701.832.3568 1.129.5603.296.2034.696.5647 1.2 1.084l1.274 1.3026h-2.52l-1.524-1.4529c-.541-.5193-.912-.8464-1.111-.9816-.199-.1351-.41-.2277-.634-.2778-.223-.0501-.576-.0752-1.06-.0752h-.428v2.7875zm2.107-3.8532h1.56c1.011 0 1.642-.0274 1.894-.082.251-.0547.448-.1488.591-.2824.142-.1336.213-.3006.213-.501 0-.2247-.094-.4061-.281-.5443-.188-.1382-.452-.2255-.794-.2619-.171-.0152-.684-.0228-1.538-.0228h-1.645z" />
        <path d="m705.62 99.192v-5.5476h-3.097v-1.1295h8.294v1.1295h-3.09v5.5476z" />
    </g>
    <path
        d="m774.89 140.14 4.377-.266s.713-9.64-13.544-15.71-26.375-13.747-42.949-17.139c-16.573-3.392-26.553-4.285-34.573-4.106-8.019.178-18.942.939-20.368 1.475.663 3.41.463 7.015 1.241 9.769l.885 4.729s2.474-2.766 36.156 1.876 36.607 6.605 36.607 6.605 10.316 4.099 11.633 4.551c3.123 1.071 20.535 8.216 20.535 8.216z"
        fill="#f8f8f8" stroke="#000" stroke-width=".999" />
    <path
        d="m695.92 113.39.238-6.673 4.894.175c1.23.043 2.122.135 2.676.275.553.14.992.369 1.316.687.325.319.48.675.466 1.07-.018.5-.287.905-.806 1.213-.52.308-1.287.486-2.301.535.497.188.906.39 1.226.605s.748.591 1.285 1.13l1.359 1.352-2.78-.099-1.63-1.512c-.578-.54-.975-.882-1.19-1.025-.215-.142-.445-.243-.689-.302-.245-.059-.634-.098-1.168-.117l-.472-.017-.099 2.786zm2.462-3.768 1.721.061c1.115.04 1.813.038 2.092-.007.28-.045.5-.131.662-.259s.247-.292.254-.492c.008-.225-.089-.41-.291-.555-.202-.146-.491-.243-.867-.293-.188-.022-.753-.05-1.696-.083l-1.814-.065z"
        fill="#bbb" />
    <path
        d="m707.79 107.13 4.603.164c.911.033 1.59.079 2.036.139s.844.166 1.192.318c.349.152.637.349.864.589.227.241.336.505.326.793-.011.313-.167.595-.467.845-.3.251-.701.432-1.203.545.697.144 1.23.365 1.597.663.366.299.543.641.529 1.026-.011.304-.143.595-.397.873-.253.278-.594.495-1.022.651-.427.157-.951.244-1.57.261-.389.011-1.324-.007-2.806-.054l-3.92-.14zm2.285 1.194-.055 1.543 1.524.054c.906.032 1.47.045 1.69.038.399-.014.715-.082.947-.206.233-.124.353-.293.361-.509.007-.206-.085-.377-.277-.513s-.481-.225-.868-.266c-.23-.023-.892-.055-1.986-.094zm-.094 2.654-.064 1.784 2.153.077c.838.029 1.37.035 1.596.015.347-.024.631-.103.854-.236.222-.133.337-.318.346-.555.007-.2-.071-.373-.233-.519-.163-.145-.402-.256-.716-.331-.315-.075-1.001-.131-2.059-.169z"
        fill="#bbb" />
    <path
        d="m665.58 255.99 8.444 12.018h-6.537l-5.689-8.043-5.64 8.043h-6.569l8.444-12.018-8.118-11.529h6.553l5.33 7.586 5.314-7.586h6.586z"
        fill="#85a7ff" />
    <path d="m707.77 199.26h6.863l5.542 8.391 5.542-8.391h6.879l-9.275 13.627v9.921h-6.276v-9.921z" fill="#fff9c1" />
    <path
        d="m719.66 306.82h-9.813l-1.548 4.29h-6.309l9.015-23.548h7.482l9.014 23.548h-6.308zm-8.248-4.369h6.667l-3.325-9.369z"
        fill="#adff92" />
    <path
        d="m774.68 249.77c1.008.013 1.774-.191 2.3-.612.526-.422.794-1.05.806-1.885.01-.825-.241-1.457-.756-1.898-.514-.441-1.275-.668-2.282-.681l-3.536-.047-.068 5.076zm.076 10.492c1.284.017 2.253-.232 2.908-.748.654-.516.989-1.305 1.003-2.365.014-1.039-.297-1.822-.932-2.35s-1.6-.8-2.895-.818l-3.752-.05-.084 6.281zm6.059-8.547c1.367.404 2.42 1.13 3.159 2.179s1.098 2.328 1.078 3.838c-.031 2.313-.862 4.027-2.493 5.14-1.631 1.114-4.096 1.649-7.394 1.605l-10.608-.141.319-23.983 9.596.128c3.442.046 5.928.582 7.459 1.609 1.531 1.028 2.281 2.65 2.252 4.866-.016 1.168-.311 2.157-.887 2.969-.575.812-1.402 1.408-2.481 1.79z"
        fill="#ffa19b" />
    <path
        d="m407.32 322.79 10.269.486s3.099 1.215 3.646 4.253c.402 2.235 2.795 13.611 3.524 14.219s4.01 6.319 6.927 6.684 22.482 3.16 23.698 4.253c1.215 1.094 3.038 5.834 3.038 5.834l.243 11.788s-.729 3.646-1.823 4.253c-1.094.608-21.267 2.552-21.267 2.552s-6.076 1.458-7.17 4.983c-1.094 3.524-3.281 18.107-4.254 19.079-.972.973-2.309 3.039-5.104 3.403-2.795.365-16.527.608-16.527.608s-5.104-1.094-6.32-2.795c-1.215-1.702-4.253-16.771-4.253-16.771s-1.944-5.347-8.021-6.927c-6.076-1.58-17.499-.243-20.902-1.823s-5.712-4.496-5.955-7.048-1.337-11.424-.851-12.153 2.795-5.104 4.132-5.226c1.337-.121 19.687-2.187 21.753-3.767s6.684-5.226 6.927-7.656c.243-2.431 1.308-16.095 2.249-16.102.772-.702 1.421-.905 2.02-1.222 1.009-.534 3.65-.674 7.033-.723 4.254-.06 6.988-.182 6.988-.182z"
        fill="#868686" stroke="#000" stroke-width=".96244" />
    <g stroke-linecap="round" stroke-linejoin="round" fill="#ccc" stroke="black" stroke-width=".25">
        <text x="861.18219" y="348.15707" font-family="sans-serif" font-size="24px">Left click</text>
        <path d="m728.7 305.7 126.64 33.932" fill="none" stroke="#f00" stroke-width="6" />
        <text x="851.1825" y="298.15744" font-family="sans-serif" font-size="24px">Quick Move</text>
        <path d="m676.49 260.89 168.85 28.74" fill="none" stroke="#f00" stroke-width="6" />
        <text x="841.1825" y="248.15707" font-family="sans-serif" font-size="24px">Right click</text>
        <path d="m789.57 250.07 45.769-10.437" fill="none" stroke="#f00" stroke-width="6" />
        <text x="831.1825" y="198.15744" font-family="sans-serif" font-size="24px">Middle click</text>
        <path d="m735.43 209.76 89.913-20.127" fill="none" stroke="#f00" stroke-width="6" />
        <text x="811.18213" y="98.157013" font-family="sans-serif" font-size="24px">Forward</text>
        <path d="m334.97 57.956 139.88-41.749" fill="none" stroke="#f00" stroke-width="6" />
        <text x="512.29346" y="24.734367" font-family="sans-serif" font-size="24px" text-align="center"
            text-anchor="middle">Scroll
        </text>
        <path d="m738 121.19 67.339-31.554" fill="none" stroke="#f00" stroke-width="6" />
        <text x="208.38876" y="98.157013" font-family="sans-serif" font-size="24px" text-align="end" text-anchor="end">
            Backward
        </text>
        <path d="m286 121.19-67.339-31.554" fill="none" stroke="#f00" stroke-width="6" />
        <!--path d="m437.86 245.8 34.846-136.24" fill="none" stroke="#f00" stroke-width="6"/>
        <text x="472.70554" y="99.555008" font-family="sans-serif" font-size="24px" text-align="center" text-anchor="middle">Fullscreen</text>
        <path d="m582.16 245.8-15.486-162.91" fill="none" stroke="#f00" stroke-width="6"/>
        <text x="566.67505" y="72.887466" font-family="sans-serif" font-size="24px" text-align="center" text-anchor="middle">Find window</text-->
        <path d="m549.15 16.207 139.88 41.749" fill="none" stroke="#f00" stroke-width="6" />
        <text x="188.38899" y="198.15736" font-family="sans-serif" font-size="24px" text-align="end" text-anchor="end">
            Coarse Movement
        </text>
        <path d="m273.57 257.58-74.907-67.946" fill="none" stroke="#f00" stroke-width="6" />
        <path d="m628.97 399.17 57.971 59.857" fill="none" stroke="#f00" stroke-width="6" />
        <text x="689.57227" y="481.45374" font-family="sans-serif" font-size="24px">Fine Movement</text>
        <text x="160.185" y="439.94879" font-family="sans-serif" font-size="24px" font-weight="bold" text-align="end"
            text-anchor="end">Enable/Disable
        </text>
        <path d="m302.94 275.72-132.48 155.7 436.25-54.324" fill="none" stroke="#f00" stroke-width="10" />
    </g>
</svg>
